# xmcd
#
# Track frame offsets:
#	150
#	14950
#	33090
#	52698
#	71662
#	96608
#	124595
#	152645
#	171958
#	209075
#	239292
#
# Disc length: 3600 seconds
#
# Revision: 7
# Processed by: cddbd v1.5.2PL0 Copyright (c) Steve Scherf et al.
# Submitted via: audiograbber 1.83.01
#
DISCID=990e0e0b
DTITLE=Joe Bonamassa - Live At The Greek Theatre  CD1
DYEAR=2016
DGENRE=Blues
TTITLE0=See See Baby
TTITLE1=Some Other Day, Some Other Time
TTITLE2=Lonesome Whistle Blues
TTITLE3=Sittin' On The Boat Dock
TTITLE4=You've Got To Love Her With A Feeling
TTITLE5=Going Down
TTITLE6=I'll Play The Blues For You
TTITLE7=I Get Evil
TTITLE8=Breaking Up Somebody's Home
TTITLE9=Angel Of Mercy
TTITLE10=Cadillac Assembly Line
EXTD=
EXTT0=
EXTT1=
EXTT2=
EXTT3=
EXTT4=
EXTT5=
EXTT6=
EXTT7=
EXTT8=
EXTT9=
EXTT10=
PLAYORDER=
